# Blender 4.1.1
# www.blender.org
mtllib v1.mtl
o floor
v 552.799988 0.000000 0.000000
v 0.000000 0.000000 0.000000
v 0.000000 0.000084 559.200012
v 549.599976 0.000084 559.200012
v 556.000000 548.799988 -0.000082
v 556.000000 548.800110 559.199890
v 0.000000 548.800110 559.199890
v 0.000000 548.799988 -0.000082
v 549.599976 0.000084 559.200012
v 0.000000 0.000084 559.200012
v 0.000000 548.800110 559.199890
v 556.000000 548.800110 559.199890
vn -0.0000 1.0000 -0.0000
vn -0.0000 -1.0000 -0.0000
vn -0.0000 -0.0000 -1.0000
s 0
usemtl white
f 1//1 2//1 3//1
f 3//1 4//1 1//1
f 5//2 6//2 7//2
f 7//2 8//2 5//2
f 9//3 10//3 11//3
f 11//3 12//3 9//3
o shortbox
v 130.000000 165.000000 64.999969
v 82.000000 165.000031 224.999969
v 240.000000 165.000031 272.000000
v 290.000000 165.000031 113.999969
v 290.000000 0.000018 114.000000
v 290.000000 165.000031 113.999969
v 240.000000 165.000031 272.000000
v 240.000000 0.000042 272.000000
v 130.000000 0.000010 65.000000
v 130.000000 165.000000 64.999969
v 290.000000 165.000031 113.999969
v 290.000000 0.000018 114.000000
v 82.000000 0.000034 225.000000
v 82.000000 165.000031 224.999969
v 130.000000 165.000000 64.999969
v 130.000000 0.000010 65.000000
v 240.000000 0.000042 272.000000
v 240.000000 165.000031 272.000000
v 82.000000 165.000031 224.999969
v 82.000000 0.000034 225.000000
vn -0.0000 1.0000 -0.0000
vn 0.9534 -0.0000 0.3017
vn 0.2928 -0.0000 -0.9562
vn -0.9578 -0.0000 -0.2873
vn -0.2851 -0.0000 0.9585
s 0
usemtl white
f 13//4 14//4 15//4
f 13//4 15//4 16//4
f 17//5 18//5 19//5
f 17//5 19//5 20//5
f 21//6 22//6 23//6
f 21//6 23//6 24//6
f 25//7 26//7 27//7
f 25//7 27//7 28//7
f 29//8 30//8 31//8
f 29//8 31//8 32//8
o tallbox
v 423.000000 330.000061 246.999939
v 265.000000 330.000061 295.999939
v 314.000000 330.000061 455.999939
v 472.000000 330.000061 405.999939
v 423.000000 0.000038 247.000000
v 423.000000 330.000061 246.999939
v 472.000000 330.000061 405.999939
v 472.000000 0.000062 406.000000
v 472.000000 0.000062 406.000000
v 472.000000 330.000061 405.999939
v 314.000000 330.000061 455.999939
v 314.000000 0.000068 456.000000
v 314.000000 0.000068 456.000000
v 314.000000 330.000061 455.999939
v 265.000000 330.000061 295.999939
v 265.000000 0.000044 296.000000
v 265.000000 0.000044 296.000000
v 265.000000 330.000061 295.999939
v 423.000000 330.000061 246.999939
v 423.000000 0.000038 247.000000
vn -0.0000 1.0000 -0.0000
vn 0.9556 -0.0000 -0.2945
vn 0.3017 -0.0000 0.9534
vn -0.8867 -0.0000 -0.4624
vn -0.9562 -0.0000 0.2928
vn -0.2962 -0.0000 -0.9551
s 0
usemtl white
f 33//9 34//9 35//9
f 33//9 35//9 36//9
f 37//10 38//10 39//10
f 37//10 39//10 40//10
f 41//11 42//11 43//11
f 41//11 43//11 44//11
f 45//12 46//12 37//12
f 45//13 47//13 48//13
f 49//14 50//14 51//14
f 49//14 51//14 52//14
o right
v 0.000000 0.000084 559.200012
v 0.000000 0.000000 0.000000
v 0.000000 548.799988 -0.000082
v 0.000000 548.800110 559.199890
vn 1.0000 -0.0000 -0.0000
s 0
usemtl green
f 53//15 54//15 55//15
f 53//15 55//15 56//15
o left
v 552.799988 0.000000 0.000000
v 549.599976 0.000084 559.200012
v 556.000000 548.800110 559.199890
v 556.000000 548.799988 -0.000082
vn -0.9999 0.0117 -0.0057
vn -1.0000 0.0058 -0.0000
s 0
usemtl red
f 57//16 58//16 59//16
f 57//17 59//17 60//17
o light
v 322.00000 186.75 -800.350021
v 322.00000 192.75 -800.350021
v 316.00000 192.75 -800.350021
v 316.00000 186.75 -800.350021
vn -0.0000 -0.0000 1.0000
s 0
usemtl light
f 61//18 62//18 63//18
f 61//18 63//18 64//18
